<?xml version="1.0" standalone="no"?><!DOCTYPE svg PUBLIC "-//W3C//DTD SVG 1.1//EN" "http://www.w3.org/Graphics/SVG/1.1/DTD/svg11.dtd"><svg t="1680218272650" class="icon" viewBox="0 0 1024 1024" version="1.1" xmlns="http://www.w3.org/2000/svg" p-id="3180" xmlns:xlink="http://www.w3.org/1999/xlink" width="32" height="32"><path d="M768 0L320 448 192 832l384-128 448-448L768 0zM320 704l64-192 128 128-192 64z m256-128l-128-128 192-192 128 128-192 192z m320-11.008l128-128V832a192 192 0 0 1-192 192H192a192 192 0 0 1-192-192V192a192 192 0 0 1 192-192h395.008l-128 128H192C156.608 128 128 156.608 128 192v640c0 35.392 28.608 64 64 64h640c35.392 0 64-28.608 64-64V564.992z" p-id="3181"></path></svg>